{
  "accessors": [
    {
      "name": "Cube.1_1_0_positions",
      "componentType": 5126,
      "count": 2040,
      "min": [
        -154.16275024414062,
        -149.05227661132812,
        -406.68731689453125
      ],
      "max": [
        160.2174530029297,
        265.78765869140625,
        408.9208984375
      ],
      "type": "VEC3",
      "bufferView": 0,
      "byteOffset": 0
    },
    {
      "name": "Cube.1_1_0_normals",
      "componentType": 5126,
      "count": 2040,
      "min": [
        -1,
        -1,
        -1
      ],
      "max": [
        1,
        1,
        1
      ],
      "type": "VEC3",
      "bufferView": 1,
      "byteOffset": 0
    },
    {
      "name": "Cube.1_1_0_texcoords",
      "componentType": 5126,
      "count": 2040,
      "min": [
        0.00008499999967170879,
        0.00008199999865610152
      ],
      "max": [
        0.9997559785842896,
        0.9997559785842896
      ],
      "type": "VEC2",
      "bufferView": 2,
      "byteOffset": 0
    },
    {
      "name": "Cube.1_1_0_indices",
      "componentType": 5123,
      "count": 4836,
      "min": [
        0
      ],
      "max": [
        2039
      ],
      "type": "SCALAR",
      "bufferView": 3,
      "byteOffset": 0
    }
  ],
  "asset": {
    "generator": "obj2gltf",
    "version": "2.0"
  },
  "buffers": [
    {
      "name": "StreetBench",
      "byteLength": 74952,
      "uri": "data:application/octet-stream;base64,"
    }
  ],
  "bufferViews": [
    {
      "name": "bufferView_0",
      "buffer": 0,
      "byteLength": 24480,
      "byteOffset": 0,
      "byteStride": 12,
      "target": 34962
    },
    {
      "name": "bufferView_1",
      "buffer": 0,
      "byteLength": 24480,
      "byteOffset": 24480,
      "byteStride": 12,
      "target": 34962
    },
    {
      "name": "bufferView_2",
      "buffer": 0,
      "byteLength": 16320,
      "byteOffset": 48960,
      "byteStride": 8,
      "target": 34962
    },
    {
      "name": "bufferView_3",
      "buffer": 0,
      "byteLength": 9672,
      "byteOffset": 65280,
      "target": 34963
    }
  ],
  "materials": [
    {
      "name": "Mat",
      "pbrMetallicRoughness": {
        "baseColorFactor": [
          0.8,
          0.8,
          0.8,
          1
        ],
        "metallicFactor": 0,
        "roughnessFactor": 0.8
      },
      "emissiveFactor": [
        0,
        0,
        0
      ],
      "alphaMode": "OPAQUE",
      "doubleSided": false
    }
  ],
  "meshes": [
    {
      "name": "Cube.1_1",
      "primitives": [
        {
          "attributes": {
            "POSITION": 0,
            "NORMAL": 1,
            "TEXCOORD_0": 2
          },
          "indices": 3,
          "material": 0,
          "mode": 4
        }
      ]
    }
  ],
  "nodes": [
    {
      "name": "Cube.1",
      "mesh": 0
    }
  ],
  "scene": 0,
  "scenes": [
    {
      "nodes": [
        0
      ]
    }
  ]
}
